<?xml version="1.0" encoding="UTF-8"?>
<svg width="129px" height="86px" viewBox="0 0 129 86" version="1.1" xmlns="http://www.w3.org/2000/svg" xmlns:xlink="http://www.w3.org/1999/xlink">
    <title>gibson</title>
    <g id="Navigation-&amp;-Sitemap" stroke="none" stroke-width="1" fill="none" fill-rule="evenodd">
        <g id="D_Navigation_v2---R6" transform="translate(-100.000000, -907.000000)">
            <g id="Group-10-Copy-8" transform="translate(50.000000, 873.500000)">
                <g id="Group-4" transform="translate(0.000000, 34.000000)">
                    <g id="gibson" transform="translate(50.000000, 0.000000)">
                        <rect id="bg" fill="#FFFFFF" x="0" y="0" width="129" height="85"></rect>
                        <path d="M96.3988003,24.5012317 C97.4213303,24.5012317 97.5074381,25.5293337 97.5074381,25.5293337 L97.5074381,25.5293337 L97.5074381,47.5543848 C97.4677246,48.6496831 98.596776,48.6892542 98.6995857,48.668722 C99.8431121,48.6097386 99.7651697,47.5973157 99.7651697,47.5973157 L99.7651697,46.097347 L101,45.6691578 L101,47.2542418 C101,51.4114473 96.1438173,51.4532583 96.1438173,51.4532583 C94.413496,51.4745371 93.8860857,49.9032657 93.8860857,49.3966809 L93.8860857,49.3966809 L93.8862169,31.3932086 C93.8868763,31.3081378 93.8652269,30.4574291 92.7355074,30.4574291 C91.5277714,30.4574291 91.627983,31.4859044 91.627983,31.4859044 L91.627983,40.1844538 L88.0496845,41.3839062 C88.1556555,39.7174402 87.268963,39.5474761 86.9600568,39.538406 L86.8957763,39.5387175 C86.8705635,39.5397764 86.8564235,39.5416101 86.8564235,39.5416101 C86.1003822,39.5419834 85.5781681,40.5704587 85.5781681,40.5704587 C84.6161362,42.3502912 82.0982479,43.3046278 81.4644874,43.5212751 L81.3560644,43.5573117 C81.3311936,43.5652999 81.3180592,43.5692762 81.3180592,43.5692762 L81.3180592,43.5692762 L78.8046023,44.383097 C78.0381687,44.5977516 77.2279389,44.6836134 77.2279389,44.6836134 C74.8926361,44.7982203 73.8623118,42.3873696 73.8623118,41.5981874 L73.8623118,41.5981874 L73.8623118,37.9987104 C73.8623118,36.2848338 72.3710139,36.7130229 72.3710139,36.7130229 C72.3710139,36.7130229 71.8317267,36.7503542 70.7950927,37.6560098 C70.3704922,38.0659066 70.0279168,37.9557795 70.0279168,37.9557795 L69.9221677,37.9203185 C69.5233558,37.7422708 69.0183772,37.0684162 68.9203924,36.9698618 C68.2018748,36.0223952 67.7079316,35.9479082 67.6163281,35.9424855 L67.6009389,35.9421331 C66.9187573,35.8988289 66.4503606,36.5846035 66.4503606,36.5846035 C65.8550291,37.3274949 66.0443178,38.0300687 66.4076779,38.3414111 C66.4459068,38.3679163 70.6139694,41.457822 70.668158,41.5126989 C71.6194264,42.3459319 71.7968382,43.5069331 71.7753112,44.1691891 C71.820592,46.4116759 69.9087763,47.209071 69.17686,47.5110806 C69.0120073,47.5929873 67.4749064,48.082106 65.9397332,48.5628457 L65.4299653,48.7222118 C63.9965067,49.1696394 62.70096,49.5684046 62.70096,49.5684046 C63.0843624,47.7682928 61.7355877,47.6828042 61.6361183,47.6828042 C61.0901504,47.6376335 60.6555287,48.2830904 60.6555287,48.2830904 C59.1965212,50.5304303 56.7762241,51.5062686 56.6934567,51.5398667 C56.172356,51.8344101 49.8352677,53.7681677 49.8352677,53.7681677 C50.0248215,52.0459315 48.9589483,51.9295571 48.7283709,51.9243903 L48.6850605,51.9247517 C48.1294426,51.8818208 47.9342154,52.1681513 47.8752019,52.2678257 C47.8161883,52.36862 46.5138079,54.537191 46.4696406,54.6249194 C45.7265897,55.8934345 44.8933483,55.5242287 44.8933483,55.5242287 C44.8933483,55.5242287 44.2171052,55.3663176 43.444362,54.324403 C42.6719899,53.2828617 41.8090562,53.84619 41.698081,53.9391447 C39.9031789,55.3872231 39.3972956,58.8877723 39.3972956,59.5944524 L39.3972956,59.5944524 L39.3972956,70.0076252 L35.265606,71.3354969 L35.265606,59.5944524 C35.2225521,57.7095987 33.8548486,58.1497339 33.6882003,58.2236498 C33.5222943,58.2975656 31.0047548,59.6806876 31.0047548,59.6806876 C29.9822247,60.2376695 29.3434682,60.2376695 29.3434682,60.2376695 C27.170731,60.2806004 27.0426827,58.1807188 27.0426827,58.1807188 L27.0426827,58.1807188 L27,37.2703782 C27,34.0561594 29.9209843,32.9186769 30.1525845,32.8141495 C30.3841848,32.7096221 35.9737684,30.9897724 37.3099239,30.5854752 C38.6460793,30.181178 40.3775141,31.7838076 40.3775141,33.5421084 L40.3775141,33.5421084 L40.3775141,38.727416 L35.8616798,40.1411496 L35.8616798,35.64199 C35.8616798,34.2278831 34.5771148,34.1091698 34.2427048,34.2278831 C33.9075525,34.3469697 32.3260641,34.9132844 32.3260641,34.9132844 C30.7813199,35.6095118 30.6640351,37.6134522 30.6640351,37.6134522 L30.6640351,55.3528783 C30.6640351,56.5956349 31.6865652,56.552704 31.6865652,56.552704 C35.8627933,56.552704 35.6657104,50.2052753 35.7763143,48.7971414 C35.7798083,48.6890353 35.7886723,47.7478591 35.7973897,46.7422273 L35.8013827,46.2763116 C35.8092673,45.3465219 35.8163039,44.4625674 35.8181535,44.2289843 L35.8186259,44.1691891 L39.4062033,42.887608 L39.3824494,50.8641715 C39.3876456,51.9878414 39.8909308,52.25028 40.1284695,52.244307 C41.9983449,52.3402482 42.5075685,45.7923509 42.5075685,45.240222 L42.5075685,45.240222 L42.5075685,41.9408881 L46.1708614,40.7839933 L46.1708614,48.9251875 C46.3026212,50.1817566 47.7545767,50.1817566 48.1736099,49.6109622 C49.6092347,47.633527 49.8352677,42.49787 49.8352677,42.49787 L49.8352677,42.49787 L49.7925849,26.6866017 L53.5416144,25.2291906 L53.5416144,25.2291906 L53.54104,25.449525 C53.5409652,25.4783179 53.5408835,25.5098145 53.540795,25.5439447 L53.540185,25.7797668 C53.5398413,25.9129175 53.5394408,26.0685065 53.5389893,26.2446382 L53.5380201,26.6237301 C53.5335402,28.3802848 53.5255177,31.5849006 53.5177023,35.0036028 L53.5159042,35.7957728 C53.5156057,35.9282473 53.5153079,36.0608981 53.5150111,36.1936549 L53.5132431,36.9909072 L53.5132431,36.9909072 L53.5115082,37.7873353 C53.5055054,40.5694594 53.5002963,43.2745145 53.4978567,45.2523048 L53.4972367,45.7970366 C53.4971465,45.8843398 53.497063,45.9698534 53.4969865,46.0535072 L53.4969786,47.9349902 C53.4970618,47.9744282 53.497154,48.0113045 53.4972555,48.0455487 L53.4979772,48.2188678 C53.498256,48.2657382 53.4985736,48.3015188 53.4989317,48.325648 C53.4989317,48.5093176 53.7598531,50.0227256 55.3305781,50.0395247 C57.0813659,50.0086731 57.1600184,48.4466069 57.1623219,48.223612 L57.1622245,40.955717 C57.1622245,39.4557482 56.0127597,39.6270986 56.0127597,39.6270986 L56.0127597,39.6270986 L56.0127597,37.5275903 C56.8645588,37.1415854 57.8436638,37.0557236 57.8436638,37.0557236 C59.5357562,36.9825544 59.9740894,39.0148664 59.9740894,39.3702597 L59.9740894,39.3702597 L59.9740894,44.1691891 C59.9740894,45.6258536 61.1929601,45.411199 61.3377103,45.3690147 C61.3986577,45.3510958 61.8011082,45.2115328 62.2466752,45.0559397 L62.5842725,44.9378894 C63.088808,44.7612562 63.5535014,44.5977516 63.5535014,44.5977516 C64.6602835,44.21212 65.0010031,45.4974342 65.0010031,45.4974342 C65.383292,46.4829786 66.0380082,46.5064973 66.2373181,46.4829786 C67.2609616,46.4590866 67.7661026,45.435091 67.8132392,45.2835262 C68.1691761,44.3954163 67.4305791,43.8697926 67.4305791,43.8697926 L67.4305791,43.8697926 L63.1270451,40.612643 C62.1495794,39.8680094 62.0693714,38.3642557 62.0627913,38.1188012 L62.0622035,38.0845722 C62.0622035,35.5990591 64.4895525,34.8281692 64.4895525,34.8281692 L64.4895525,34.8281692 L70.668158,32.7708453 L70.668158,32.7708453 L70.6688675,33.0981944 C70.6689325,33.1353345 70.6689952,33.1742366 70.669052,33.21412 L70.6690165,33.7883702 C70.6688344,33.8487237 70.6685577,33.8973869 70.668158,33.9281133 C70.7097273,34.7762788 71.5537321,34.8281692 71.7333708,34.8281692 C72.0269538,34.8281692 72.4615755,34.6254607 72.6701642,34.3996067 C74.2897005,31.4603644 77.6280286,30.5093375 78.1078935,30.3858994 L78.1592398,30.3731174 L78.1592398,30.3731174 L78.1658458,30.3715673 L78.123163,32.1713058 C77.055757,32.2454591 76.9744267,33.1822246 76.9720942,33.4363272 L76.9729256,33.4920754 L76.9729256,33.4920754 L76.973327,33.4995508 L76.973327,40.4409194 C76.973327,42.1122384 78.6873176,42.1813012 78.8476562,42.1551693 C80.6050718,42.0853599 80.7219854,40.5144619 80.7219854,40.1844538 L80.7219854,29.5151889 L82.212541,29.2146725 C83.8634353,29.0059909 84.3767417,30.9897724 84.3429666,31.6572547 L84.3429666,31.6572547 L84.3420745,32.0302695 C84.3420231,32.075935 84.3419769,32.1248249 84.3419356,32.1766237 L84.341932,34.5218552 C84.3419597,34.5994629 84.3419888,34.6765081 84.3420188,34.7526751 L84.3429666,36.5846035 C84.391959,37.8953029 85.6950817,37.7127532 85.7904684,37.6989407 C87.1782142,37.681395 87.964319,32.4505433 87.964319,31.4000426 L87.964319,31.4000426 L87.964319,27.1580952 L91.627983,25.9582695 L91.627983,27.07186 C91.6127657,28.1092948 92.7781902,27.9719159 92.7781902,27.9719159 C93.7580375,27.9719159 94.0137628,26.9863715 94.7378848,25.7014306 C95.3354594,24.639341 96.0791782,24.5129688 96.3197889,24.5011369 Z M43.8603267,31.9937248 C44.8953593,31.9937248 45.7341772,32.8326374 45.7341772,33.867431 C45.7341772,34.9013591 44.8953593,35.7405602 43.8603267,35.7405602 C42.8258711,35.7405602 41.9873418,34.9013591 41.9873418,33.867431 C41.9873418,32.8326374 42.8258711,31.9937248 43.8603267,31.9937248 Z" id="Combined-Shape" fill="#000000"></path>
                    </g>
                </g>
            </g>
        </g>
    </g>
</svg>